<svg width="200" height="200" viewBox="0 0 200 200" xmlns="http://www.w3.org/2000/svg">
  <!-- Background circle with gradient -->
  <defs>
    <linearGradient id="bgGradient" x1="0%" y1="0%" x2="100%" y2="100%">
      <stop offset="0%" style="stop-color:#52c688;stop-opacity:1" />
      <stop offset="100%" style="stop-color:#52c688;stop-opacity:1" />
    </linearGradient>
    <linearGradient id="chartGradient" x1="0%" y1="0%" x2="100%" y2="100%">
      <stop offset="0%" style="stop-color:#10b981;stop-opacity:1" />
      <stop offset="100%" style="stop-color:#059669;stop-opacity:1" />
    </linearGradient>
    <filter id="shadow" x="-50%" y="-50%" width="200%" height="200%">
      <feDropShadow dx="0" dy="2" stdDeviation="4" flood-color="rgba(0,0,0,0.1)"/>
    </filter>
  </defs>
  
  <!-- Main circle background -->
  <circle cx="100" cy="100" r="90" fill="url(#bgGradient)" filter="url(#shadow)"/>
  
  <!-- Inner white circle -->
  <circle cx="100" cy="100" r="70" fill="white" opacity="0.95"/>
  
  <!-- Centered chart bars -->
  <g transform="translate(100, 100)">
    <!-- Bar 1 -->
    <rect x="-36" y="5" width="12" height="25" fill="url(#chartGradient)" rx="3"/>
    <!-- Bar 2 -->
    <rect x="-16" y="-10" width="12" height="40" fill="url(#chartGradient)" rx="3"/>
    <!-- Bar 3 -->
    <rect x="4" y="-5" width="12" height="35" fill="url(#chartGradient)" rx="3"/>
    <!-- Bar 4 -->
    <rect x="24" y="-20" width="12" height="50" fill="url(#chartGradient)" rx="3"/>
  </g>
  
  <!-- Centered trend line -->
  <path d="M70 118 L84 90 L100 95 L114 80 L130 70" 
        stroke="#f59e0b" stroke-width="3" fill="none" stroke-linecap="round" stroke-linejoin="round"/>
  
  <!-- Trend line points -->
  <circle cx="70" cy="118" r="3" fill="#f59e0b"/>
  <circle cx="84" cy="90" r="3" fill="#f59e0b"/>
  <circle cx="100" cy="95" r="3" fill="#f59e0b"/>
  <circle cx="114" cy="80" r="3" fill="#f59e0b"/>
  <circle cx="130" cy="70" r="3" fill="#f59e0b"/>
  
  <!-- Subtle decorative dots -->
  <circle cx="70" cy="60" r="2" fill="#10b981" opacity="0.4"/>
  <circle cx="130" cy="130" r="2" fill="#667eea" opacity="0.4"/>
  <circle cx="60" cy="140" r="1.5" fill="#f59e0b" opacity="0.4"/>
  <circle cx="140" cy="60" r="1.5" fill="#10b981" opacity="0.4"/>
</svg>